<svg xmlns="http://www.w3.org/2000/svg" viewBox="0 0 100 100">
  <!-- 背景 -->
  <rect width="100" height="100" rx="22" fill="#e07b3a"/>
  <!-- 鍋のボディ -->
  <ellipse cx="50" cy="62" rx="28" ry="20" fill="#fff8f0"/>
  <rect x="22" y="48" width="56" height="20" rx="4" fill="#fff8f0"/>
  <!-- 鍋のふち -->
  <rect x="18" y="45" width="64" height="8" rx="4" fill="#f3d5b0"/>
  <!-- 鍋の持ち手（左） -->
  <rect x="8" y="47" width="14" height="6" rx="3" fill="#f3d5b0"/>
  <!-- 鍋の持ち手（右） -->
  <rect x="78" y="47" width="14" height="6" rx="3" fill="#f3d5b0"/>
  <!-- 湯気1 -->
  <path d="M38 38 Q40 30 38 22" stroke="#ffcc99" stroke-width="3" fill="none" stroke-linecap="round"/>
  <!-- 湯気2 -->
  <path d="M50 35 Q52 27 50 19" stroke="#ffcc99" stroke-width="3" fill="none" stroke-linecap="round"/>
  <!-- 湯気3 -->
  <path d="M62 38 Q64 30 62 22" stroke="#ffcc99" stroke-width="3" fill="none" stroke-linecap="round"/>
  <!-- ハート -->
  <path d="M50 78 C50 78 40 70 40 64 C40 60 43 58 46 59 C48 60 50 62 50 62 C50 62 52 60 54 59 C57 58 60 60 60 64 C60 70 50 78 50 78Z" fill="#e07b3a"/>
</svg>
